<?xml version="1.0" encoding="utf-8"?>
<!-- Generator: Adobe Illustrator 27.5.0, SVG Export Plug-In . SVG Version: 6.00 Build 0)  -->
<svg version="1.1" xmlns="http://www.w3.org/2000/svg" xmlns:xlink="http://www.w3.org/1999/xlink" x="0px" y="0px"
	 viewBox="0 0 2200 2200" style="enable-background:new 0 0 2200 2200;" xml:space="preserve">
<g id="background">
	<rect style="fill:#FFFFFF;" width="2200" height="2200"/>
</g>
<g id="Objects">
	<g>
		<path style="fill:#106FB5;" d="M1268.539,1654.255c-168.261,57.488-393.913,44.811-547.034-50.242
			c-54.614-34.649-107.191-87.196-113.475-154.878c-2.487-28.035,4.641-56.642,19.594-80.233
			c4.843-7.621,10.26-14.744,16.308-21.207c-3.673,8.055-6.946,16.149-9.48,24.369c-7.491,23.663-8.913,49.236-2.327,73.057
			c17.89,63.141,78.427,103.091,134.801,130.955c91.567,43.533,193.009,63.563,293.704,73.542
			C1129.745,1656.353,1199.076,1656.969,1268.539,1654.255L1268.539,1654.255z"/>
		<path style="fill:#106FB5;" d="M1529.024,1317.854c36.128,17.176,63.173,51.743,71.052,91.068
			c15.1,75.923-40.202,144.501-107.557,171.954c-14.083,5.808-28.567,10.262-43.744,12.318c4.98-5.9,10.12-11.248,15.115-16.636
			c31.128-33.51,65.285-68.127,82.676-110.859c13.009-31.39,12.655-65.934,2.359-98.111
			C1543.725,1350.287,1536.352,1334.556,1529.024,1317.854L1529.024,1317.854z"/>
		<path style="fill:#106FB5;" d="M750.94,1795.64c-128.988-15.381-291.43-85.106-346.525-210.786
			c-0.777-1.651-2.083-4.825-2.704-6.591c-0.753-2.231-3.028-7.841-3.703-10.066c-1.141-3.897-3.14-9.837-4.065-13.79
			c-0.587-2.407-1.848-8.112-2.42-10.549c-0.869-4.739-1.616-9.513-2.327-14.279c-0.277-4.038-1.079-10.406-1.177-14.439
			c0.002-4.108-0.389-10.386-0.116-14.477c0,0,0.329-7.226,0.329-7.226c5.98-91.192,78.004-162.104,154.959-201.391
			c22.8-11.701,46.632-21.633,71.179-28.819c-13.696,10.113-27.228,20.099-40.33,30.427
			c-80.603,63.337-166.118,156.248-122.799,265.125c29.263,72.483,101.679,126.713,167.056,166.817
			C661.017,1751.705,705.944,1773.609,750.94,1795.64L750.94,1795.64z"/>
		<path style="fill:#106FB5;" d="M1552.537,1248.949c114.515,36.509,245.316,117.987,253.45,250.41
			c4.958,150.814-149.897,248.068-274.677,294.87c-140.25,51.837-292.005,67.707-440.296,55.75
			c-26.757-2.26-53.401-5.502-79.794-10.145c46.558-2.138,93.039-5.199,139.302-9.997
			c160.982-17.976,324.557-52.086,465.211-134.848c51.898-31.757,102.378-72.422,129.366-127.69
			c34.419-70.684,11.177-141.561-37.967-198.505C1664.628,1319.018,1608.993,1281.682,1552.537,1248.949L1552.537,1248.949z"/>
		<path style="fill:#106FB5;" d="M1870.81,1401.744c44.486,46.598,75.094,107.062,75.088,172.639
			c0.834,80.233-43.527,153.557-99.69,207.938c-121.323,115.607-289.449,174.869-450.938,207.754
			c-311.684,61.767-739.305,27.924-998.344-169.97c-61.494-48.311-116.476-111.37-135.901-188.722
			c-12.227-47.75-8.146-99.476,11.157-144.753c15.956-38.302,41.869-72.202,71.656-100.464
			c-39.095,47.567-68.585,105.273-69.425,167.691c-1.368,135.902,121.904,230.062,232.666,285.543
			c338.811,167.35,904.547,165.638,1233.642-24.868c49.312-29.325,95.858-64.953,131.645-110.13
			C1948.785,1607.599,1943.044,1499.384,1870.81,1401.744L1870.81,1401.744z"/>
		<g>
			<g>
				<path style="fill:#106FB5;" d="M1364.76,1447.705c-0.734,0.649-1.47,1.295-2.208,1.94
					c-149.201,130.287-378.314,130.286-527.543,0.029c-0.749-0.654-1.496-1.31-2.241-1.968
					c-112.338-99.313-174.036-248.553-162.979-394.3c13.666-180.23,128.596-336.723,234.853-486.326
					c84.09-118.417,167.644-247.103,194.13-385.102c26.469,137.999,110.04,266.685,194.13,385.102
					c106.239,149.603,221.187,306.097,234.853,486.326C1538.796,1199.152,1477.098,1348.392,1364.76,1447.705z"/>
			</g>
			<g>
				<path style="fill:#FFFFFF;" d="M1055.25,1410.961c12.751-26.919-0.915-58.959-29.194-68.317
					c-57.68-19.085-109.12-48.607-148.108-85.501c-45.568-43.12-73.907-96.101-80.981-150.632
					c-1.442-11.115-11.014-19.376-22.222-19.376h0c-13.17,0-23.557,11.297-22.353,24.412c6.799,74.063,35.223,146.092,81.141,204.63
					c41.147,52.457,96.161,93.85,157.744,119.33C1015.767,1445.641,1043.903,1434.915,1055.25,1410.961L1055.25,1410.961z"/>
			</g>
			<circle style="fill:#FFFFFF;" cx="776.244" cy="1002.729" r="23.949"/>
		</g>
	</g>
</g>
</svg>
